D:\school\WTK\thesis\model\3dpredictsim\Results\debug_batch\Pog_s1_tmt_bCst_d05_k800_ig24_pas_GRF.mot
nRows=15
nColumns=19

name D:\school\WTK\thesis\model\3dpredictsim\Results\debug_batch\Pog_s1_tmt_bCst_d05_k800_ig24_pas_GRF.mot
datacolumns 19
datarows 15
range 0.5553884558 0.7108972235
endheader
time 	ground_force_vx	ground_force_vy	ground_force_vz	ground_force_px	ground_force_py	ground_force_pz	1_ground_force_vx	1_ground_force_vy	1_ground_force_vz	1_ground_force_px	1_ground_force_py	1_ground_force_pz	ground_torque_x	ground_torque_y	ground_torque_z	1_ground_torque_x	1_ground_torque_y	1_ground_torque_z
        0.5553884558	      100.2260557580	      495.4572666224	        4.0133523925	        0.3766149875	        0.0000000000	        0.0331238888	      -76.9482284728	       63.1120637340	      -29.4553204432	        0.8632756973	        0.0000000000	       -0.0378595874	        0.0000000000	        0.0000000000	        0.0000000000	        0.0000000000	        0.0000000000	        0.0000000000	
        0.5664962249	       81.4297604148	      414.2885916099	        9.0862816094	        0.3803862099	        0.0000000000	        0.0319735527	     -123.0326505780	      140.5421934872	      -74.3141147410	        0.8708566604	        0.0000000000	       -0.0354454485	        0.0000000000	        0.0000000000	        0.0000000000	        0.0000000000	        0.0000000000	        0.0000000000	
        0.5776039941	       59.9196261657	      321.2925698599	        9.4960606577	        0.3863377496	        0.0000000000	        0.0296565844	      -49.9088468896	      284.5710059741	      -33.1014725059	        0.8768638687	        0.0000000000	       -0.0329712522	        0.0000000000	        0.0000000000	        0.0000000000	        0.0000000000	        0.0000000000	        0.0000000000	
        0.5887117632	       30.7873536653	      215.9670748236	        5.7901864126	        0.3975741283	        0.0000000000	        0.0243659753	      -46.0449619788	      452.6012993311	       -3.8837518727	        0.8811285288	        0.0000000000	       -0.0331230150	        0.0000000000	        0.0000000000	        0.0000000000	        0.0000000000	        0.0000000000	        0.0000000000	
        0.5998195323	       10.0340509580	      141.1878053957	        8.4814369132	        0.4127728140	        0.0000000000	        0.0163462087	      -79.6676364384	      658.2566974985	        7.2412654120	        0.8897337795	        0.0000000000	       -0.0356559121	        0.0000000000	        0.0000000000	        0.0000000000	        0.0000000000	        0.0000000000	        0.0000000000	
        0.6109273014	        1.4080387110	      112.2424577538	        9.8922838587	        0.4122917957	        0.0000000000	        0.0167846938	     -105.6688546075	      800.4746888611	       12.7113521519	        0.8959623402	        0.0000000000	       -0.0374491554	        0.0000000000	        0.0000000000	        0.0000000000	        0.0000000000	        0.0000000000	        0.0000000000	
        0.6220350705	       -1.8596593757	       74.0099345450	        9.1537636254	        0.4128081342	        0.0000000000	        0.0168453817	     -114.3320184955	      857.5690343356	       13.8651792524	        0.9001016129	        0.0000000000	       -0.0385108413	        0.0000000000	        0.0000000000	        0.0000000000	        0.0000000000	        0.0000000000	        0.0000000000	
        0.6331428396	       -8.0408676031	       30.6697884983	        5.3206951432	        0.4124595752	        0.0000000000	        0.0167936050	     -110.9915363063	      858.5387914033	       13.7239537374	        0.9033192076	        0.0000000000	       -0.0391218030	        0.0000000000	        0.0000000000	        0.0000000000	        0.0000000000	        0.0000000000	        0.0000000000	
        0.6442506088	        0.1065286525	       -0.1063898141	       -0.0015239668	        0.0000000000	        0.0000000000	        0.0000000000	     -102.1137007105	      838.3870382310	       13.9618289444	        0.9065660115	        0.0000000000	       -0.0394195621	        0.0000000000	        0.0000000000	        0.0000000000	        0.0000000000	        0.0000000000	        0.0000000000	
        0.6553583779	        0.0001354202	       -0.0001112947	        0.0000083198	        0.0000000000	        0.0000000000	        0.0000000000	      -89.7162832985	      805.3881005559	       14.6016156626	        0.9099393177	        0.0000000000	       -0.0395325605	        0.0000000000	        0.0000000000	        0.0000000000	        0.0000000000	        0.0000000000	        0.0000000000	
        0.6664661470	        0.0000542183	       -0.0000388099	        0.0000042622	        0.0000000000	        0.0000000000	        0.0000000000	      -78.1671357676	      768.1639751831	       15.0332530444	        0.9138097949	        0.0000000000	       -0.0395493578	        0.0000000000	        0.0000000000	        0.0000000000	        0.0000000000	        0.0000000000	        0.0000000000	
        0.6775739161	        0.0004931740	       -0.0003164690	        0.0000429133	        0.0000000000	        0.0000000000	        0.0000000000	      -68.1665595259	      734.0466776049	       15.1357480048	        0.9181942296	        0.0000000000	       -0.0394517314	        0.0000000000	        0.0000000000	        0.0000000000	        0.0000000000	        0.0000000000	        0.0000000000	
        0.6886816852	        0.0059684723	       -0.0035112441	        0.0005475178	        0.0000000000	        0.0000000000	        0.0000000000	      -58.3544566019	      701.2080399473	       15.6289941740	        0.9225441074	        0.0000000000	       -0.0393531485	        0.0000000000	        0.0000000000	        0.0000000000	        0.0000000000	        0.0000000000	        0.0000000000	
        0.6997894543	       -0.0268393858	        0.0146973904	       -0.0025515606	        0.0000000000	        0.0000000000	        0.0000000000	      -48.7229356979	      670.5698837217	       16.1402331445	        0.9267899515	        0.0000000000	       -0.0393135468	        0.0000000000	        0.0000000000	        0.0000000000	        0.0000000000	        0.0000000000	        0.0000000000	
        0.7108972235	       -0.0184205005	        0.0094924154	       -0.0018040625	        0.0000000000	        0.0000000000	        0.0000000000	      -40.4325734747	      644.2852630239	       16.7456870223	        0.9311294525	        0.0000000000	       -0.0393226605	        0.0000000000	        0.0000000000	        0.0000000000	        0.0000000000	        0.0000000000	        0.0000000000	
